name C:/MyDriveSym/Projects/mobilecap/Data\Session20210830_0002\mocap\ForceDataProcessed\walkingTS2_forces.mot
datacolumns 19
datarows 9
range 1.04950000 1.05350000
endheader 
time	R_ground_force_vx	R_ground_force_vy	R_ground_force_vz	R_ground_force_px	R_ground_force_py	R_ground_force_pz	R_ground_torque_x	R_ground_torque_y	R_ground_torque_z	L_ground_force_vx	L_ground_force_vy	L_ground_force_vz	L_ground_force_px	L_ground_force_py	L_ground_force_pz	L_ground_torque_x	L_ground_torque_y	L_ground_torque_z	
          1.04950000	          0.00000000	          0.00000000	          0.00000000	          1.27736500	          0.00000000	         -0.21475200	          0.00000000	          0.00000000	          0.00000000	         62.90458600	        807.07405100	         48.08151700	          0.95707100	          0.00600000	         -0.33274200	          0.00000000	          4.67385800	          0.00000000	
          1.05000000	          0.00000000	          0.00000000	          0.00000000	          1.27863800	          0.00000000	         -0.21482900	          0.00000000	          0.00000000	          0.00000000	         63.22757700	        808.70617000	         48.25836900	          0.95730000	          0.00600000	         -0.33277300	          0.00000000	          4.64166800	          0.00000000	
          1.05050000	          0.00000000	          0.00000000	          0.00000000	          1.27991200	          0.00000000	         -0.21490600	          0.00000000	          0.00000000	          0.00000000	         63.55069000	        810.33059000	         48.43379000	          0.95752900	          0.00600000	         -0.33280300	          0.00000000	          4.60930800	          0.00000000	
          1.05100000	          0.00000000	          0.00000000	          0.00000000	          1.28118500	          0.00000000	         -0.21498200	          0.00000000	          0.00000000	          0.00000000	         63.87392500	        811.94715100	         48.60775800	          0.95775900	          0.00600000	         -0.33283400	          0.00000000	          4.57678200	          0.00000000	
          1.05150000	          0.00000000	          0.00000000	          0.00000000	          1.28245900	          0.00000000	         -0.21505900	          0.00000000	          0.00000000	          0.00000000	         64.19728200	        813.55569800	         48.78024800	          0.95798800	          0.00600000	         -0.33286400	          0.00000000	          4.54409300	          0.00000000	
          1.05200000	          0.00000000	          0.00000000	          0.00000000	          1.28373200	          0.00000000	         -0.21513500	          0.00000000	          0.00000000	          0.00000000	         64.52076200	        815.15607300	         48.95123900	          0.95821800	          0.00600000	         -0.33289400	          0.00000000	          4.51124400	          0.00000000	
          1.05250000	          0.00000000	          0.00000000	          0.00000000	          1.28500600	          0.00000000	         -0.21521200	          0.00000000	          0.00000000	          0.00000000	         64.84436700	        816.74811900	         49.12070800	          0.95844700	          0.00600000	         -0.33292500	          0.00000000	          4.47823900	          0.00000000	
          1.05300000	          0.00000000	          0.00000000	          0.00000000	          1.28627900	          0.00000000	         -0.21528800	          0.00000000	          0.00000000	          0.00000000	         65.16809700	        818.33168000	         49.28863200	          0.95867700	          0.00600000	         -0.33295500	          0.00000000	          4.44508100	          0.00000000	
          1.05350000	          0.00000000	          0.00000000	          0.00000000	          1.28755300	          0.00000000	         -0.21536500	          0.00000000	          0.00000000	          0.00000000	         65.49195200	        819.90659900	         49.45498900	          0.95890600	          0.00600000	         -0.33298500	          0.00000000	          4.41177400	          0.00000000	
